<?xml version="1.0" encoding="utf-8"?>
<!-- Generator: Adobe Illustrator 24.3.0, SVG Export Plug-In . SVG Version: 6.00 Build 0)  -->
<svg version="1.1" id="Layer_1" xmlns="http://www.w3.org/2000/svg" xmlns:xlink="http://www.w3.org/1999/xlink" x="0px" y="0px"
	 viewBox="0 0 282 209" style="enable-background:new 0 0 282 209;" xml:space="preserve">
<style type="text/css">
	.st0{fill:#48CAE4;}
	.st1{fill:#03045E;}
	.st2{fill:url(#SVGID_1_);}
	.st3{fill:#FCFCFC;}
</style>
<g>
	<circle class="st0" cx="25.25" cy="34.71" r="22.13"/>
	<circle class="st1" cx="256.75" cy="34.71" r="22.13"/>
	<linearGradient id="SVGID_1_" gradientUnits="userSpaceOnUse" x1="23.5505" y1="129.0832" x2="255.0502" y2="129.0832">
		<stop  offset="0" style="stop-color:#00B4D8"/>
		<stop  offset="0.3343" style="stop-color:#0077B6"/>
		<stop  offset="0.7142" style="stop-color:#023E8A"/>
		<stop  offset="0.7904" style="stop-color:#022E7E"/>
		<stop  offset="1" style="stop-color:#03045E"/>
	</linearGradient>
	<path class="st2" d="M255.05,80.67c0,6.75-0.58,13.36-1.69,19.79c-0.1,0.56-0.19,1.12-0.3,1.67c-3.16,16.87-9.99,32.46-19.62,45.9
		c-0.29,0.42-0.6,0.84-0.91,1.25c-14.49,19.65-35.04,34.56-58.89,41.96c-0.48,0.14-0.95,0.29-1.42,0.43
		c-10.44,3.09-21.48,4.75-32.91,4.75c-10.74,0-21.13-1.46-30.99-4.2c-0.48-0.13-0.96-0.27-1.44-0.41
		c-25.53-7.43-47.42-23.43-62.34-44.66c-0.32-0.44-0.62-0.88-0.92-1.33c-3.6-5.28-6.78-10.88-9.48-16.73
		c-4.58-9.92-7.79-20.59-9.39-31.79c-0.09-0.57-0.17-1.15-0.23-1.73c-0.63-4.88-0.95-9.85-0.95-14.9c0-6.44,0.55-12.76,1.56-18.92
		c1.53,9.31,4.16,18.23,7.77,26.64c0.2,0.47,0.4,0.94,0.61,1.4c4.6,10.35,10.69,19.92,17.97,28.41c1.66,1.94,3.38,3.82,5.17,5.64
		c0.35,0.36,0.71,0.72,1.06,1.07c14.34,14.26,32.39,24.79,52.57,30c0.48,0.13,0.96,0.25,1.45,0.37c8.84,2.16,18.08,3.31,27.58,3.31
		c9.83,0,19.38-1.23,28.5-3.54c0.48-0.12,0.95-0.24,1.42-0.37c18.33-4.89,34.87-14.18,48.42-26.66c0.37-0.33,0.73-0.67,1.09-1.01
		c10.04-9.47,18.38-20.72,24.52-33.26v-0.01c0.23-0.45,0.45-0.9,0.66-1.36c4.54-9.56,7.8-19.84,9.58-30.62
		C254.5,67.9,255.05,74.22,255.05,80.67z"/>
	<g>
		<path class="st3" d="M33.49,89.79l-8.76,7.51c-0.09-0.57-0.17-1.15-0.23-1.73l8.38-7.18C33.08,88.86,33.29,89.33,33.49,89.79z"/>
	</g>
	<g>
		<path class="st3" d="M57.7,124.9l-13.17,22.24c-0.32-0.44-0.62-0.88-0.92-1.33l13.02-21.99C56.99,124.19,57.35,124.55,57.7,124.9z
			"/>
	</g>
	<g>
		<path class="st3" d="M111.72,155.27l-3.41,36.95c-0.48-0.13-0.96-0.27-1.44-0.41l3.41-36.91
			C110.75,155.04,111.23,155.15,111.72,155.27z"/>
	</g>
	<g>
		<path class="st3" d="M253.36,100.46c-0.1,0.56-0.19,1.12-0.3,1.67l-9.82-8.39v-0.01c0.23-0.45,0.45-0.9,0.66-1.36L253.36,100.46z"
			/>
	</g>
	<g>
		<path class="st3" d="M233.44,148.03c-0.29,0.42-0.6,0.84-0.91,1.25l-14.89-21.27c0.37-0.33,0.73-0.67,1.09-1.01L233.44,148.03z"/>
	</g>
	<g>
		<path class="st3" d="M173.63,191.25c-0.48,0.14-0.95,0.29-1.42,0.43l-4.42-36.63c0.48-0.12,0.95-0.24,1.42-0.37L173.63,191.25z"/>
	</g>
</g>
</svg>
